/* XPM */
static char *eab94086897e46c4d925f9b0c858d69b[] = {
/* columns rows colors chars-per-pixel */
"16 16 208 2 ",
"   c #725D2F",
".  c #695A37",
"X  c #6F603F",
"o  c #79663C",
"O  c #7B6A42",
"+  c #7A6A43",
"@  c #7B6C4B",
"#  c #A77F2C",
"$  c #826F49",
"%  c #887447",
"&  c #86754A",
"*  c #8F7849",
"=  c #8F7B53",
"-  c #BE922E",
";  c #B28835",
":  c #B68E36",
">  c #B08C3F",
",  c #CB9A32",
"<  c #C49B3D",
"1  c #C89C3F",
"2  c #D3A539",
"3  c #D4A53D",
"4  c #B59147",
"5  c #A48F5C",
"6  c #AF955E",
"7  c #B29455",
"8  c #B1965C",
"9  c #B4995F",
"0  c #9A9271",
"q  c #A79261",
"w  c #AD9460",
"e  c #AB9564",
"r  c #BCA36C",
"t  c #B8A477",
"y  c #BAA576",
"u  c #B6A97D",
"i  c #C19C4E",
"p  c #D3A846",
"a  c #D9AF4F",
"s  c #DFB04B",
"d  c #D9B14F",
"f  c #C8A254",
"g  c #D1A750",
"h  c #D7AF53",
"j  c #D0AD57",
"k  c #D7AE5A",
"l  c #D3B05E",
"z  c #DCB359",
"x  c #DEB658",
"c  c #E1B548",
"v  c #E3B74F",
"b  c #E5B854",
"n  c #E4B856",
"m  c #E4B857",
"M  c #E4BC5D",
"N  c #CAA962",
"B  c #CDA961",
"V  c #CCAA61",
"C  c #CEAC63",
"Z  c #CEAE65",
"A  c #C9AD6D",
"S  c #D3B261",
"D  c #DCB460",
"F  c #DDB760",
"G  c #DCB661",
"H  c #D8B264",
"J  c #DEB862",
"K  c #DBB964",
"L  c #DCB76D",
"P  c #DFBA6A",
"I  c #DBB96C",
"U  c #DDBB6D",
"Y  c #DFBF6C",
"T  c #C2A870",
"R  c #C4AE76",
"E  c #D2B372",
"W  c #D5B575",
"Q  c #DABC74",
"!  c #D0B77C",
"~  c #D6BC7C",
"^  c #D8BD7C",
"/  c #E4BD62",
"(  c #E5BE63",
")  c #E1B865",
"_  c #E2BB64",
"`  c #E2B966",
"'  c #E2BC64",
"]  c #E5BE64",
"[  c #E1BB6A",
"{  c #E3BB6A",
"}  c #E3BD6B",
"|  c #E4BF6A",
" . c #E0BD6D",
".. c #E1BE71",
"X. c #DFC37E",
"o. c #EDC463",
"O. c #EAC26E",
"+. c #E7C170",
"@. c #E5C273",
"#. c #E6C673",
"$. c #E5C275",
"%. c #E6C475",
"&. c #E8C872",
"*. c #EECA73",
"=. c #E8CA77",
"-. c #E7C778",
";. c #E0C47D",
":. c #E2C57C",
">. c #E3C57D",
",. c #E5C77D",
"<. c #E5C77E",
"1. c #E7C87D",
"2. c #E4C97F",
"3. c #EBCA7B",
"4. c #ECCA78",
"5. c #ECCD7B",
"6. c #EECD7A",
"7. c #EECD7B",
"8. c #EACC7D",
"9. c #EBCD7D",
"0. c #E9CC7F",
"q. c #F1CF76",
"w. c #BEB286",
"e. c #B5AF92",
"r. c #CAB283",
"t. c #CCB584",
"y. c #CFBA86",
"u. c #D1BE88",
"i. c #DFC484",
"p. c #DBC28A",
"a. c #DCC28A",
"s. c #D9C294",
"d. c #DDC891",
"f. c #D0C59B",
"g. c #DECB98",
"h. c #DDCD98",
"j. c #DFCC98",
"k. c #DAC99E",
"l. c #E4C780",
"z. c #E6CA80",
"x. c #E5CA85",
"c. c #E8CA82",
"v. c #E9CB82",
"b. c #EACD81",
"n. c #ECCE81",
"m. c #E8CB85",
"M. c #E9CE86",
"N. c #E1C58A",
"B. c #E2C78B",
"V. c #E3CA89",
"C. c #E5CB89",
"Z. c #E6CB88",
"A. c #E2CD8C",
"S. c #EAD286",
"D. c #EBD088",
"F. c #EBD188",
"G. c #EBD38A",
"H. c #EFD78D",
"J. c #F5D686",
"K. c #F7D789",
"L. c #F1D68C",
"P. c #E4D095",
"I. c #EBD093",
"U. c #E9D691",
"Y. c #EAD693",
"T. c #E2D399",
"R. c #E1D09A",
"E. c #E7D49A",
"W. c #E1D59E",
"Q. c #E8D399",
"!. c #EEDA9B",
"~. c #EED89E",
"^. c #F2D996",
"/. c #F2DA98",
"(. c #F2DC9D",
"). c #F0DF9E",
"_. c #FDE29B",
"`. c #D5CCA1",
"'. c #DFD4AA",
"]. c #DFD7AA",
"[. c #D9D3B3",
"{. c #EDD6A2",
"}. c #EEDAA4",
"|. c #EBDCA6",
" X c #EFDAAB",
".X c #F1DEA0",
"XX c #F3DFA6",
"oX c #EFE5AF",
"OX c #F5E2A3",
"+X c #F5E2A6",
"@X c #FCE5A6",
"#X c #F5E2A8",
"$X c #EDE3B5",
"%X c #E4E3BE",
"&X c #EFE2B9",
"*X c #F3E1B1",
"=X c #F5E4B2",
"-X c #F6E5B3",
";X c #F3E3B6",
":X c #F5E2B4",
">X c #F5E6B8",
",X c #F7E6B9",
"<X c #F6E7BC",
"1X c #E9DFC1",
"2X c #EBE1C2",
"3X c #EDE4C6",
"4X c #F5EAC5",
"5X c None",
/* pixels */
"5X5X5X5X5X}.XX#X-X;X{.5X5X5X5X5X",
"5X5X5X<Xb.*.6.S.U.|.4X*X X5X5X5X",
"5X5XG.h p ;.2.G.U.P.g.1X,Xm.5X5X",
"5X:Xa - ^ S Z H.T.].].a.1X-XI.5X",
"5X=., ~ : > $.K._.#X%X[.d.3X(.5X",
"~.s Q l ; i I 5 q @Xh.e.f.k.>XD.",
"n.z >.f 7 B 6 . X t j.u 0 w.&X^.",
"6.P ,.H 9 r = $ + @ y.u.`.W.$X/.",
"4...l.B w y &   o O t.R T..XoXL.",
"&.{ C.8 e r.s.* % T i.! V.(.).8.",
",.m C.m.L N.a.N.W B U +.J.#Xq.-.",
"5XM _ E.O.{ A E N 4 # x !.7.o.5X",
"5X>.v  .Q.0.D k g 1 j A.K c v.5X",
"5X5XJ b _ x.M.0.2.2.X.< 2 4.5X5X",
"5X5X5XY / m | %.+.F 3 d #.5X5X5X",
"5X5X5X5X5XF ' ] ] _ } 5X5X5X5X5X"
};
