/* XPM */
static char *_6923f3c24c74c3f85c07f4bc2fee660[] = {
/* columns rows colors chars-per-pixel */
"80 80 228 2 ",
"   c #584417",
".  c #67542A",
"X  c #745C2A",
"o  c #6C5A32",
"O  c #77643A",
"+  c #7A612B",
"@  c #5C4C27",
"#  c #7D6E4A",
"$  c #4B3200",
"%  c #9C6616",
"&  c #846C38",
"*  c #8B723B",
"=  c #957838",
"-  c #866B2C",
";  c #A87930",
":  c #AE751D",
">  c #826D41",
",  c #8A7648",
"<  c #947C46",
"1  c #8C7C54",
"2  c #937F52",
"3  c #BC8919",
"4  c #BC8925",
"5  c #A7843A",
"6  c #B98A39",
"7  c #BA9134",
"8  c #9E803E",
"9  c #C6931B",
"0  c #C58F18",
"q  c #C4942C",
"w  c #CC9B2D",
"e  c #C89626",
"r  c #D49C27",
"t  c #C59432",
"y  c #CB9B34",
"u  c #CC9D3B",
"i  c #C79736",
"p  c #C99433",
"a  c #D6A22C",
"s  c #CDA13D",
"d  c #CEA135",
"f  c #D3A334",
"g  c #DAA334",
"h  c #D2A33C",
"j  c #DAA63C",
"k  c #DCAA3C",
"l  c #D9AA38",
"z  c #CFA22F",
"x  c #E1AD3A",
"c  c #E3B13D",
"v  c #9C834A",
"b  c #998556",
"n  c #A98A48",
"m  c #B78B43",
"M  c #B89247",
"N  c #A58D57",
"B  c #AB9259",
"V  c #B89957",
"C  c #978B67",
"Z  c #989070",
"A  c #AA9566",
"S  c #B49B63",
"D  c #B79C67",
"F  c #A89A73",
"G  c #A9966C",
"H  c #BCA36B",
"J  c #BDA265",
"K  c #B7A479",
"L  c #ADA17C",
"P  c #C79B47",
"I  c #C59A50",
"U  c #CEA243",
"Y  c #CCA24D",
"T  c #D3A544",
"R  c #D5A944",
"E  c #DBAB44",
"W  c #D2A64A",
"Q  c #D5AA4B",
"!  c #DBAD4B",
"~  c #D8A541",
"^  c #DDB14D",
"/  c #DEB343",
"(  c #CAA65A",
")  c #D4AB53",
"_  c #D9AE53",
"`  c #D4AD5B",
"'  c #D7AC57",
"]  c #DDB353",
"[  c #DCB45B",
"{  c #DEB95C",
"}  c #D9B457",
"|  c #E1AE48",
" . c #E2B245",
".. c #E1B34C",
"X. c #E6B94C",
"o. c #E1B453",
"O. c #E3BA55",
"+. c #E1B65B",
"@. c #E2BA5C",
"#. c #EABC53",
"$. c #C5AA6C",
"%. c #C7A768",
"&. c #D2AD62",
"*. c #DBB563",
"=. c #DEBA63",
"-. c #DAB66A",
";. c #C5AB73",
":. c #CAAE73",
">. c #C5AA7A",
",. c #CCB174",
"<. c #CCB47B",
"1. c #D2B575",
"2. c #D2B67A",
"3. c #D5BA7D",
"4. c #DBBC78",
"5. c #CCB16D",
"6. c #E3BC63",
"7. c #E2BD6B",
"8. c #E4BA61",
"9. c #E2BE72",
"0. c #E0BE79",
"q. c #EAC25B",
"w. c #DFC072",
"e. c #E4C165",
"r. c #E9C364",
"t. c #E5C26B",
"y. c #EAC56C",
"u. c #EBC96C",
"i. c #E5C374",
"p. c #EAC672",
"a. c #ECCB74",
"s. c #E4C47B",
"d. c #ECCC7B",
"f. c #E6C97B",
"g. c #F1CE7A",
"h. c #F1CC75",
"j. c #EDD27B",
"k. c #ECD076",
"l. c #F3D27D",
"z. c #F5D479",
"x. c #F0C868",
"c. c #B7AB85",
"v. c #B2AB8A",
"b. c #CAB788",
"n. c #D7BD84",
"m. c #C8BB97",
"M. c #CAB58E",
"N. c #DDC282",
"B. c #DBC48A",
"V. c #D9C697",
"C. c #C9C29A",
"Z. c #E3C583",
"A. c #EACD83",
"S. c #E6CA89",
"D. c #ECD284",
"F. c #EDD48C",
"G. c #EBD58A",
"H. c #F4D483",
"J. c #F9D683",
"K. c #F3D58B",
"L. c #F4DB8C",
"P. c #FADC8C",
"I. c #F7D985",
"U. c #E4CB93",
"Y. c #E7CE98",
"T. c #ECD493",
"R. c #EBD49C",
"E. c #EEDA9C",
"W. c #E9D596",
"Q. c #F3DB94",
"!. c #FADE93",
"~. c #F3DC9B",
"^. c #FBDE9B",
"/. c #F1D694",
"(. c #F0CE81",
"). c #FBE28D",
"_. c #FBE195",
"`. c #F5E19B",
"'. c #FBE39C",
"]. c #FCE898",
"[. c #D8CCA6",
"{. c #DCD3A8",
"}. c #DAD0B1",
"|. c #ECD9A4",
" X c #EDDCAA",
".X c #E7D5A5",
"XX c #F2DDA6",
"oX c #E6DAB6",
"OX c #ECDAAF",
"+X c #F5E3A3",
"@X c #FBE5A3",
"#X c #FCEAA4",
"$X c #F3E4AC",
"%X c #FBE5AA",
"&X c #FBEBAC",
"*X c #F6E9AD",
"=X c #FFF2A9",
"-X c #EBE3B9",
";X c #F3E4B2",
":X c #FBECB3",
">X c #F5ECBC",
",X c #FBEDBB",
"<X c #F5E7B7",
"1X c #FEF2B4",
"2X c #FDF3BC",
"3X c #FFFCBB",
"4X c #FFFAB3",
"5X c #EBE2AD",
"6X c #E3DAC3",
"7X c #F5ECC3",
"8X c #F6EBC5",
"9X c #FCF3C3",
"0X c #FFFCC5",
"qX c #FBF5CB",
"wX c #FEFBCC",
"eX c #F6F1C5",
"rX c #FBF6D2",
"tX c #FEFCD4",
"yX c #FEFDDB",
"uX c #F8F4D9",
"iX c #F1E9D0",
"pX c #FEFEE3",
"aX c #FFFEED",
"sX c #F8F3E4",
"dX c #FFFFF4",
"fX c #FFFFFE",
"gX c #FBF7F3",
"hX c None",
/* pixels */
"hXhXhXhXhXhXhXhXhXhXhXhXhXhXhXhXhXhXhXhXhXhXhXhXhXhXhXhXhXhXhXhXhXhXhXT.T.R..X|..X.X.X|.R.hXhXhXhXhXhXhXhXhXhXhXhXhXhXhXhXhXhXhXhXhXhXhXhXhXhXhXhXhXhXhXhXhXhXhX",
"hXhXhXhXhXhXhXhXhXhXhXhXhXhXhXhXhXhXhXhXhXhXhXhXhXhXhXhXhXhXT.F.E.<X>XsXuXaXaXdXaXdXaXaXuXiX>XOX X|.hXhXhXhXhXhXhXhXhXhXhXhXhXhXhXhXhXhXhXhXhXhXhXhXhXhXhXhXhXhX",
"hXhXhXhXhXhXhXhXhXhXhXhXhXhXhXhXhXhXhXhXhXhXhXhXhXhXF.a.D.<XuXfXfXfXdXuX8X<XXX5XXXXX;XiXuXdXfXfXfXgXiXOXS.hXhXhXhXhXhXhXhXhXhXhXhXhXhXhXhXhXhXhXhXhXhXhXhXhXhXhX",
"hXhXhXhXhXhXhXhXhXhXhXhXhXhXhXhXhXhXhXhXhXhXhXhXA.j.$XuXfXaXsX|.A.@.6...6.] @.+.e.@.+.O.@.O.{ i.T.rXfXfXfX8X|.R.hXhXhXhXhXhXhXhXhXhXhXhXhXhXhXhXhXhXhXhXhXhXhXhX",
"hXhXhXhXhXhXhXhXhXhXhXhXhXhXhXhXhXhXhXhXhXhXp.j.9XfXgXqXZ.o. .O.#.h.a.L.^.&X&X:X:X,X,X2X*XE.G.p.t.E E p.<XfXfXsX|.T.hXhXhXhXhXhXhXhXhXhXhXhXhXhXhXhXhXhXhXhXhXhX",
"hXhXhXhXhXhXhXhXhXhXhXhXhXhXhXhXhXhXhXhXp.u.9XfXaX|...^ ..r.P.'.#X@X1XL.k.^.+X:X1X+XG.,X9XtXpXaXyX7XE.=.l Q K.sXfXfXR.S.hXhXhXhXhXhXhXhXhXhXhXhXhXhXhXhXhXhXhXhX",
"hXhXhXhXhXhXhXhXhXhXhXhXhXhXhXhXhXhXD.y.:XfXdXA.^ E t.u._.J.x.l.P.'.K.^.`.t.@X&X`.`.Q.i.:X9X,X`.W.yXaXaXeXR.} / i.sXfXsXY.Y.hXhXhXhXhXhXhXhXhXhXhXhXhXhXhXhXhXhX",
"hXhXhXhXhXhXhXhXhXhXhXhXhXhXhXhXhXO./.fXfX/.R l ] g.l.(.h.l.+Xt.J.!.P.Q.~.a.'.#X&X+XA.a.0X9X*X*XL.Z.qXtXaXdXpX;X] a f.fXfX8Xf.hXhXhXhXhXhXhXhXhXhXhXhXhXhXhXhXhX",
"hXhXhXhXhXhXhXhXhXhXhXhXhXhXhXhX{ eXfX,X{ Q E e.@.O.y.g.a.l.&Xk.l.P.].).).=X=X4X4X&X=X=X3X2X,X*Xj.W.tXqX7XE.<XdXaXR.^ ^ ,XfXgXF.hXhXhXhXhXhXhXhXhXhXhXhXhXhXhXhX",
"hXhXhXhXhXhXhXhXhXhXhXhXhXhXi.p.aXgXG.h l ^ e.{ `./.o.a.g.h.x.).]._.(.4.$.%.5.%.5.:.<.b.V.5X2X0X3X2XqXqX*X!.f.7XpXdXpXT.r e.dXfX XS.hXhXhXhXhXhXhXhXhXhXhXhXhXhX",
"hXhXhXhXhXhXhXhXhXhXhXhXhXe.k.fXyXq.h R ^ { { ^ `.~.o.y.z.z.t.&.( %.%.$.;.n.B.B.B.n.n.:.;.,.b.b.[.7XtXyX:XD.T.sXtXqXyXdX-XE  .9XfX7XZ.hXhXhXhXhXhXhXhXhXhXhXhXhX",
"hXhXhXhXhXhXhXhXhXhXhXhX6.D.fX,X] h s s h _ { +.^ { z.u.Y I J <.V.|.'.'.].).H.l.l.I.P.).].].W.B.2.;.c.V.yXtXeXyXyX7XT.E.fXsX=.g '.fXiXf.hXhXhXhXhXhXhXhXhXhXhXhX",
"hXhXhXhXhXhXhXhXhXhXhXO.E.fX+X! w y d Q.~.j _ ] r.6.m m <.E.1X=Xk.{ } } } { 6.6.e.7.=.{ ^ ] ] u.#X&XW.,.D [.pXpXyX$XL.t.5XdXdXW.r l.fXsXd.hXhXhXhXhXhXhXhXhXhXhX",
"hXhXhXhXhXhXhXhXhXhXe.T.fXXXX.e q d z +X@Xd O.#.t m b. X4XD.=.} } u.J.!.!.].&X&X&X1X1X1X:X+XG.e.] ] k.=X`.,.K }.pXqXG.|.uXtXyXfX Xr u.dXiXU.hXhXhXhXhXhXhXhXhXhX",
"hXhXhXhXhXhXhXhXhXi.d.fXE./ 4 4 z s U d h O.y ; ;.>X=Xa._ } y.J.P.!.!.).!.^.'.'.@X@X&X2X9X0XtXwX0XE.e.R e.=X+X5.K sXaXrXyXrX<X$XpX-Xr q.dX8XS.hXhXhXhXhXhXhXhXhX",
"hXhXhXhXhXhXhXhXR.@.fX>X/ q e e q y s s l 4 5 {.0XD._ _ p.h.h.g.J.H.5.5.5.!.!._.].*X$Xb.b.C.:X2XqXyXaXeX7.h t.3XN.S 6XdXyX8X*Xj.G.fX.Xr h.fXOXhXhXhXhXhXhXhXhXhX",
"hXhXhXhXhXhXhXhX^ dXyX@.h 0 R 0Xt.3 f z : S 0X#X6.^ 6.e.t.t.p.g.i.J K.P.K.!.!.!.@X@XK +X*X$Xc.9X2X0XeXpXaX-X=.R #X*XJ C.dX8XL.A.E.rXfXE.r ).dXR.hXhXhXhXhXhXhXhX",
"hXhXhXhXhXhXhX+.>XyXt.! q q U +X=.e e % >.tXD.] { ] ] =.t.V f.j.S A.K.P.P.I.!.!.'.*XG %X&X1X2X5Xv.C.m.oXtXaXaXW.z k.3X%.c.fX>X|.dXrXyXfXf.r 1XpXS.hXhXhXhXhXhXhX",
"hXhXhXhXhXhXA.f.aXD. .e y y y 9 w 9 % C.wXk.] } T _ +.=.i.v , s.-.B D.J.9.H.!.!.'.@Xn.b.*X:X*Xc.<X0XeXv.-XrXtXaX1XQ =.3X1.M.dXpXrXrX,XuXuX] x tX8XW.hXhXhXhXhXhX",
"hXhXhXhXhXhXE dX>XO.h e e y y y e % V.wXe.} U d Q } [ 6.s.v J , $.4.5.-.g.J.P.!.!.'.+X$XY.Y.;Xb..X9X9X[.}.rXC.rXaXyX{ ] 3X4.M.aXyXqX*XR.rXuXz r.pXR.hXhXhXhXhXhX",
"hXhXhXhXhX8.$XaXp.] e ] @.d p f % <.wXt.} u i Q M & V 7.i.S Z.s.i.d.j.g.l.J.P.P.L.!.'.+X@X%X&X:XC.{.[.c.9X-Xv.eXtXpXyX} ! 0X5.C.fX;X+Xa.E.fXE.r %XrXT.hXhXhXhXhX",
"hXhXhXhXhXe.aXG.X.y w ~.0Xy f : D wXk.{ i q U Y Y n * * V V i.i.i.p.a.h.g.l.J.J.P.!.^.'.@X@X%X:X1X1X9X9X9Xv.eXrX}.>XyXpX=.@.4X%.}.fXT.T.iXtXaX}  .yX|.hXhXhXhXhX",
"hXhXhXhX@.;XyXe.R d h _ _ j 3 n yXL.{ u q 5 m Y ` v -.&.*.=.=.t.7.7.p.p.h.g.l.J.J.P.P.!.'.'.#X%X%X1X,X2XC.[.qXoXZ }.qXpXpX] a.3X$.iXyXpXyXtXdX;Xa L.qX.XhXhXhXhX",
"hXhXhXhX6.pXF.6.k R h z w f : 5X#X=.Q q M M P Y ` = ` } } } } { @.8.7.y.u.h.g.J.J.P.P.!.!.^.'.'.%X*X&X,X2X>XoXv.eXC.tXrXaX2XR @XF.b.dXtXpX>XeXdX6.| wX~.hXhXhXhX",
"hXhXhX6.+X<Xe._ d y j R / : b.0Xe.} y W m - = * P I W W Q Q _ _ o.@.6.6.y.h.h.g.l.J.P.P.P.P.'.@X@X#X*X:X,X9X{.oXtXv.yX}.6XaXE.h 4X1.oXaX7X$XXX7X8Xr I.9XR.hXhXhX",
"hXhXhX] yX/.} E E @.R j y ; 9XH.{ W U W ) ) ) m P s s s T R Q ^ ] +.+.6.t.u.a.h.l.l.P.P.P.!.!.^.].@X#X&X:X2X2XqXyXv.-XZ oXyXaXt.a.+X>.gX5X`.a.E.dX} #.tXF.hXhXhX",
"hXhXS.p.,Xd.@.e t.tXe.l ; B.4X6.Q U = 5 ) ) 6 P u i i y d U R Q ! _ { 6.6.y.u.h.h.z.J.J.I.!.!.)._.@X#X%X*X:X,X9XqXv.v.rXrXrXpXeX^ =Xn.V.fX|.S.>XdX;Xl #X<XOXhXhX",
"hXhX6.:X<Xe.E E ] e.^ e M 0Xj.+.h Q Q I = M U U i q q i i d T R ! ! ] @.8.6.y.p.h.g.l.J.J.P.P.!.!.'.@X@X#X*X:X2X9X7XqXwXrXrXrXpXA.t.=X3.yXtXpXpXyXpX+.u.2X|.hXhX",
"hXhXe.qXT.6.E ^ E h  .4 b.4Xe._ T Q Q _ Y 5 U y y t q q y y u s Q ! ] [ 7.9.f.h.(.(.H.K.I.I.P.P.!.!.'.@X#X*X&X2X2X0XeXrXrXrXqXyX9X} =XN.{.aXyXrXuXfXs.X.3XT.hXhX",
"hXU.a.,Xa.@.E E ^ ! E m <XK.] T Q Q Q W T T s u d y t q y i d s R _ [ 6.i.s.;.A b A :.A.I.P.P.P.!._.'.@X*X*X&X2X>X>X0XqX0X0XrXrXpXf.k.E.B.pXyX>X$XuX|.^ #X~.hXhX",
"hXi.L.:X9.o.! j E ^ p %.3Xt.+.h Q Q Q Q W Q T U U u s u t u s U Q ` -.1.2 O . o o . @ o 2 Z.L.!._.'.~.V.c.G G F F Z Z C Z Z F }.yX*X} #Xn.iX>X:X!./.uXo.I.;X|.hX",
"hX6.+XT.a.E ..:Xa.k 7 B.=X@.o.~ Q Q _ _ ' Y m n 8 8 8 5 5 6 P W *.4.K . O O > , > # O . . @ >.^.'.U.C C b C Z v.v.C.{.eX}.C.Z o v.rXt.].U.{.yXT.t.5XfXt.x.:X~.hX",
"hX@.*X/.8.k o.@Xp.c M .X).@.E Q ! _ [ I X & , , < < , > & & & & H K X & b b b b v b v.C.[.1 . K n.C 1 Z K c.c.L L F C K qXrXqXqX# v.Y.k.E.V.yX>XeX7XdXS.@.1XF.hX",
"hXe.#XD.7.E ..j E E I :Xj.6.E ..] [ %.o N *.[ *.` ' ' ' ' &.&.>.F X , v N B V B K 6XoX}.c.1 O o 1 K c.n.|.;X:X,X,X,X{.1 L qXqXrXC v.-Xw.~.B.tXyXyXpXaXE...#XT.hX",
"W.y.*XZ.+.| o...#.t %.1Xi.o.! _ [ 8.%.O -.-.[ ' ' W W ) ) &.4.U., * v v n V H D K >.n v v b v O 2 %X#X@X%X%X%X&X,X,X8X[.C 8XrXC Z tXqXt.].B.>XtXrX9XaX<Xo.!.K.hX",
"S.x.~.t.@.^ E ! #.6 >.1Xe.o.| _ +.-.9.b & -.[ ' W W W W W &.N.K - < B 6XiX;.%.;.$.J H H D A N b & c.^.^.'.'.'.%X%X,X{.O oXqXZ , eXwXtXi.Q.U.5X9X;XE.rX7X6.l.L.-X",
"s.z.`.D.+.! X...#.6 B.#X6...^ o.+.6.9.9., X ( W E T T T W -.B.1 - < }.-XiXoX( :.,.,.;.;.H H A N , 2 ^.^.!.^.^.+X&Xm.. [.8X, 1 eX9XqXtXD._.S.[.9X`.`.W.rX6.g.L.XX",
"t.D.Q.9.~ | yX/.x P .X'.@.! ^ o.o.*.7.9.9.N o * W W T W ' -.B.b m.[.V.OX6Xb.%.<.2.2.3.2.,.;.H B < 2 >.< <.^.@X$X, O .X}.o c.,X,X9X9XtXj.L.B.B.yXL.=.5XdX6.a.^.XX",
"{ I.+XZ.| ..K.t. .M  X'.@.^ ^ ^ ] o.8.7.9.9.-.> O < ` ' *.D M.V.m.A 8 D H ( ,.3.3.n.N.3.3.,.H S b > V.c.G G N 1 c.;X:XV.[.:X,X,X,X1XwXG.G.W.B.0X>XeX>XyX6.r.!.|.",
"} l.~.f.^ ..l E X.I XXQ.+.| ^ ^ o.] [ 8.-.9.0.s.J b > < > N M., = v B B S ;.<.3.N.N.N.3.3.<.$.S b & XXXXb.. # o M.:X%X&X&X:X&X&X*X:X0XG.H.T.3.wX3XqXwXtXe.y.Q.E.",
"} I.$XZ. ...^ o. .P  X'.@.E ^ ^ ^ ] +.+.7.0.,.< >.:.O > , A c.< v B A D H :.2.3.N.Z.N.N.3.2.;.D N 2 c.A G V.%XY.C , c.@X%X%X#X%X&X:X0XL.H.Y.<.wX9X,X9XrX6.t.L./.",
"{ k.Q.f.o.^ ! | X.M  X'.8.E ^ _ ] o.+.7.i.b , G 2 > >.Z.S.M.F < N V S %.$.,.2.3.N.3.N.3.3.1.$.S v N M.V.~.^.XX%X@XV.O , ^.@X@X@X%X1X9XK.L.W.B.*X+X+X,XwX6.a.L.R.",
"7.k.~.w.o.! ^ ^ X.P .X#X8.| o.o.o.+.7.5.O G G 2 G 0.9.0.Z.Y.oXK 8 S J %.;.,.1.3.3.3.3.3.1.:.$.S < A /.K.F./.!.^.^.%X@XG O E.@X#X*X*X2Xl.!.U.n.1XQ.*XA.7X7.u.j.+X",
"s.q.L.A.^ ^ 0XL. .6 V.=Xr.o.^ o.8.9.%.. K H > 4.9.7.8.-.9.Z..X}.5 S J $.5.:.1.1.3.2.3.1.1.:.J B = M.S.d.g.(.K.I.!.^.%X%XF > @X@X@X@X1XD.].U.B.1XG.y.~.9X@.d.(.E.",
"S.q.L.f.o.| A.7.X.6 b.1X9.+.o.+.8.:.. n.>.& Z.9.8.*.*.' 8.0.Y.OXK 5 $.%.;.:.,.,.1.1.,.,.,.$.J v D Y.Z.p.d.d.g.K./.^.%X+X@XO B.`.'.#X&Xa.@XU.T.&X:X+X,X*X{ a.d. X",
"Y.| L.W.8.| j | #.p %.2Xh.o.+.8.0.X :.S., d.9.9.7.-.B ' [ *.0.R.-Xn n $.%.$.5.5.,.5.5.5.$.H n = G A S %.0.n.2 ;.K./.S.b.1 C E.^._.#X&Xd.%XS.~.&X&X1X9XE.O.K.y.<X",
"hX/ H.D.t.| ..o.o.E ( :XK.r.+.9.B 2 A.N.1 D 1.0.n.@     ( ' -.Z..XoXn m J $.$.$.$.$.$.%.J n v C.b.A 2 > H D $ O 3., , 1 K '.!._._.@X!.D.$XN.@X#X^.@X0XD.e.J.r.hX",
"hX! l.%X9.k ^ E ~ X.I  X'.a.8.9.H O N.A.0.B v D >.  .   2 ' _ 9.S..XoXK 5 M V J J V V n 5 A V.Z.0.s.0.0.A.n.b >.T.S.~.^.!.!.Q.!.'.@XH.G.XXZ.'.Q.+X+X0Xi.t.F.y.hX",
"hX_ u.G.A.^ E 8.+.#.i V.&Xh.7.7.i.A * b S $.H B.V..     J ! ' *.9.Z.R.OX[.K S n n B B K M.B.4.-.8.8.7.9.s.f.A.A.K.K.K.P.P.P.!.!.!.].h.`.R.Z.].A.@Xa.,Xe.h.f.j.hX",
"hX9...Q.D.| k 9XQ.x u ,.9XD.u.+.p.s.0.D B 2 S A.U.U.H 1.8.] ! ' [ -.0.B.Y..X.X}.{.V.V.N.-.&.} ` ' ' [ =.7.i.i.i.d.g.g.(.K.J.P.P.!.).a.,XS.K.L.g.y.~.+X} d.p.T.hX",
"hXU./ h.F.6.k 7.@.| | I >X~.p.+.7.7.9.9.9.9.9.s.Z.Z.0.9.[ ] ! W ) ' ' 7.0.0.Z.0.s.4.-.&.) T U s T R Q ' } 6.6.t.9.p.h.g.g.J.J.P.!.l.L.;X4.].'.#XL.1XA.e.d...<XhX",
"hXhXf j./.p./ E | o.#.i V.3Xj.6.o.8.8.7.8.8.8.6.8.8.8.8.+._ | ! ~ ~ ! _ ' ' *.` ' ) Y P u t p y u T T Q _ o.} 6.8.6.u.h.g.g.J.J.).d.1XY.w.].^.^.'.1X6.e.j.r.hXhX",
"hXhX} ..L.R.E o.X.^ o.j ( wXQ.t.! o.+.+.+.] ] ] o.o.+.+.o._ | ! W ! W ~ T Q W Q T U u y p q q i d U T R Q ^ ] { @.r.7.p.h.g.g.z.l.G.0X4.K.J.J.K.#X^.{ d.q.A.hXhX",
"hXhXZ.f k.T.a.k ^ j j #.6 .X4Xj.O.! o.o.o.o.o.^ | o.o.o.o.o.Y M W | ~ W R ~ T ~ h u y p p p t i s 7 s T R Q _ ] +.8.8.y.y.h.h.P.a.&XR.7.P.a.:Xl.@Xa.t.D.O.XXhXhX",
"hXhXhXz q.T.f.E R %X/. .j M 0X^.h.| | ^ ! ^ ^ ^ o.+.| o.+.+.[ X ) ~ ! ! _ Q U 5 5 5 h p p u i U P @ d T T R Q _ +.+.8.r.t.u.h.l./.9X-.z.z.h.g.h.!.+.t.a.#.hXhXhX",
"hXhXhX{ E u.$X@.g :XQ.~ #.7 V.0Xl.7.~ ^ ^ ^ o...o.| o._ o.8.8.& o._ ! ) _ [ - Q Q u h y y u U Y n - = T T U R ! _ o.8.6.6.8.l.g.2XY.*.J.J.P.y.].g.6.j...F.hXhXhX",
"hXhXhXhXr f.D.G.! k | o...| M >X&XD.O.E ^ ....o.^ ^ _ o.+.6.*.= +.o.| _ [ *.* I _ T h y u s W ` = ( X i U U T R _ ] } 8.+.a.j.*X>X&.h.g.l.P.P._.+.a.d.O.hXhXhXhX",
"hXhXhXhX&.r g.+Xo.E ^ o.^ X.u %.yX`.l.^ E o.o...^ o.^ o.8.7.( v +.o._ _ [ -.( + n W h h h U W &.* M O = U U U R Q ] } ^ 6.l.L.wX4.6.h.u.h.l.!.g.@./.X.D.hXhXhXhX",
"hXhXhXhXhXr O.D.~.j o.o.l j #.p M.wXL.z...^ o.! o...o.+.8.6.( n +.o.o._ +.-.7.&.* 5 T h T W ' V B 5.` . m s s T R ! R ] l.L.0XU._ x.+.&X/.u.J.8.K.t.X.hXhXhXhXhX",
"hXhXhXhXhX=.r t.XX(.g ~ ^.^.| | 6 Y.wXH.l.| R o.....o.[ +.7.V m +.' o.o.[ *.7.9.*.O Q T W W ` = &.&.&.5 X 7 d h T y Q l.D.wX.XY e.e.@.g.p.a.6.r.j.o.D.hXhXhXhXhX",
"hXhXhXhXhXhXe f (.<Xo.g XX^.E O.| m ;X0XG.z.^ E o..._ o.8.8.n < ) _ o.] +.( ( *.` = Q R T ) I + Y ` ) Y 5 i u s q h j.L.0X<XI ] e.e.u.] u.h.o.G.@.X.hXhXhXhXhXhX",
"hXhXhXhXhXhXA.w E Q.8Xg k ! o.o.#.E m -XwXQ.l.+.~ ^ o.+.+.8.8.8.o.o.o.] +.[ n M V ) _ Q Q _ P Y Q Q Y Y U i q 4 Q H.Q.0X<XY ^ o.Q e.6.p.a.8.Q.j. .R.hXhXhXhXhXhX",
"hXhXhXhXhXhXhX_ r +.`.XXa ..o.o.g  .| 6 .XwX`.I.y.j E o.+.+.+.+.] o.o.o.o.+.8.=.' _ ! R E W T U U U s U u 4 3 { I.].tX XP h ^ t./.{ 6.6.@.g.A. .p.hXhXhXhXhXhXhX",
"hXhXhXhXhXhXhXhXw r 8.8Xd.g ! ! d.t...| 7 V.tX&XL.h.8.~ | +.o.] ^ o.o._ o.+.[ [ ^ _ _ W T T T h h s u e 4 U t.).&XtX{.i z E h j.2XO.] +.7.G.....hXhXhXhXhXhXhXhX",
"hXhXhXhXhXhXhXhXhX9 a r.wX9.a ! 0X^.g +.X.p :.8X9X@XJ.h.6.E E ^ ^ ^ ^ o.o.] _ _ ^ ! Q R T R T T d e e T t.L.#X0XrX1.q z R R } R / Q 6.a.+X@. .;XhXhXhXhXhXhXhXhX",
"hXhXhXhXhXhXhXhXhXw.0 l h.tX7.a +.@...o.^ X.y I [.wX2X^.L.u.q.^ ~ E E ! ! ^ o.o.^ ! ~ ~ h d w w h ! e.L.#X1XtX|.P 3 z e z Y Q R R { d.`.t. .S.hXhXhXhXhXhXhXhXhX",
"hXhXhXhXhXhXhXhXhXhX9.9 k a.9Xp.r | o.o.! E #. .p 5..X9X3X*XQ.l.t.r.8.o.! E E E T ~ ~ ~ Q { e.e.d.`.&X2XwX5X5.4 3 e z E.f.z s R } k.G.e.x D.hXhXhXhXhXhXhXhXhXhX",
"hXhXhXhXhXhXhXhXhXhXhX} 9 g y.wXS.g | h a.qXo...#.k P %..XeX0X2X=X^.K.K.l.k.a.a.h.h.h.l.l.L.~.&X2X0XwX X&.t 3 e q 4 w 4X+Xe d Q k.`.i.a f.hXhXhXhXhXhXhXhXhXhXhX",
"hXhXhXhXhXhXhXhXhXhXhXhX_ 9 f y.wXE.~ g t.^.o.| o.| / g u ` n..X>X9X,X2X1X1X&X:X=X1X1X1X2X2X9X7X5Xs.( t q w e 4 t i q z w y _ f.F.t.l p.hXhXhXhXhXhXhXhXhXhXhXhX",
"hXhXhXhXhXhXhXhXhXhXhXhXhX=.9 f | :X>X8.r j o.o.^ o.7.O...E s U ( -.Z.Y..XOX;X;X;X;XOX|.Y.S.-.) i q e f y e D.f.e y q 3 0 } L.E.6.x f.hXhXhXhXhXhXhXhXhXhXhXhXhX",
"hXhXhXhXhXhXhXhXhXhXhXhXhXhXs.0 r x ~.tXA.E l o.j a.yXr.E ..o.x x E ~ U P Y ) Y Y Y Y P u y w f f r d s y z 2X@X9 4 q U s./.A.O.x D.hXhXhXhXhXhXhXhXhXhXhXhXhXhX",
"hXhXhXhXhXhXhXhXhXhXhXhXhXhXhX|.w e k 6.>X$X9.g j ] p.o.^ o.! d.7.| o.X. .x  .| | E k g E Q ! d @.T.! d d y j 9 q U { W.E.f. .x  XhXhXhXhXhXhXhXhXhXhXhXhXhXhXhX",
"hXhXhXhXhXhXhXhXhXhXhXhXhXhXhXhXhXQ 9 f k F.qXXX8.g a | o.E ~ 0XQ.j o.| ..K.8.^ ] E ] L.+.~ E y f.0X] y y r 3 U =.T.+Xf.+.a @.hXhXhXhXhXhXhXhXhXhXhXhXhXhXhXhXhX",
"hXhXhXhXhXhXhXhXhXhXhXhXhXhXhXhXhXhXs.r 9 E X.`.:XXXi.o.j ~ E +.O...o.E +.9Xa.j o.k 6.tXy.h Q T R k r w T T i.T.^.f.7.c l F.hXhXhXhXhXhXhXhXhXhXhXhXhXhXhXhXhXhX",
"hXhXhXhXhXhXhXhXhXhXhXhXhXhXhXhXhXhXhXhX7.e e g 6.A.$X:XT.t.+.g g E | ! ^ ..^ o...^ ! E E E E f h z [ f.i.+X^.d.o.| l f.hXhXhXhXhXhXhXhXhXhXhXhXhXhXhXhXhXhXhXhX",
"hXhXhXhXhXhXhXhXhXhXhXhXhXhXhXhXhXhXhXhXhXhX^ e r f o.a./.<X;Xj.A.i.@.@...E | | E ..! E E 8.] w.i.F.~.XXa.f.@.r k 6.hXhXhXhXhXhXhXhXhXhXhXhXhXhXhXhXhXhXhXhXhXhX",
"hXhXhXhXhXhXhXhXhXhXhXhXhXhXhXhXhXhXhXhXhXhXhXhX9.h f a k O.y.K.E.E.E.T.F./.G.A.T.D.T.d.L.T.~././.f.u.^ #.x / f.hXhXhXhXhXhXhXhXhXhXhXhXhXhXhXhXhXhXhXhXhXhXhXhX",
"hXhXhXhXhXhXhXhXhXhXhXhXhXhXhXhXhXhXhXhXhXhXhXhXhXhX4.[ E x l E k O.8.x.p.j.A.K.d.D.f.(.u.r.@.o. .X.c #.+.n.hXhXhXhXhXhXhXhXhXhXhXhXhXhXhXhXhXhXhXhXhXhXhXhXhXhX",
"hXhXhXhXhXhXhXhXhXhXhXhXhXhXhXhXhXhXhXhXhXhXhXhXhXhXhXhXhX%.` _ ^ /  .| x  .E  ./ | | X. .X.X.^ +.` 5.hXhXhXhXhXhXhXhXhXhXhXhXhXhXhXhXhXhXhXhXhXhXhXhXhXhXhXhXhX",
"hXhXhXhXhXhXhXhXhXhXhXhXhXhXhXhXhXhXhXhXhXhXhXhXhXhXhXhXhXhXhXhXhXhX( ( &.) ' ' [ ` ` ` ( %.hXhXhXhXhXhXhXhXhXhXhXhXhXhXhXhXhXhXhXhXhXhXhXhXhXhXhXhXhXhXhXhXhXhX"
};
