/* XPM */
static char *_84ad564f8ab4eb3a0defa5b2dd98267[] = {
/* columns rows colors chars-per-pixel */
"32 32 191 2 ",
"   c #6A5933",
".  c #7C693E",
"X  c #77643B",
"o  c #B97E00",
"O  c #997A38",
"+  c #997126",
"@  c #A17E33",
"#  c #816E43",
"$  c #887447",
"%  c #957D46",
"&  c #897850",
"*  c #B98214",
"=  c #B1842E",
"-  c #BA923E",
";  c #A4823E",
":  c #C49523",
">  c #C99628",
",  c #D29D2E",
"<  c #CD9C34",
"1  c #C49838",
"2  c #D09E3F",
"3  c #CFA13D",
"4  c #D4A53A",
"5  c #D9A537",
"6  c #E0AA39",
"7  c #998455",
"8  c #9A865A",
"9  c #98804C",
"0  c #A38543",
"q  c #AC8B43",
"w  c #A68A4B",
"e  c #B5944C",
"r  c #BC9747",
"t  c #A48C59",
"y  c #AB925D",
"u  c #B09459",
"i  c #BE9E5A",
"p  c #B99B56",
"a  c #9E8D65",
"s  c #AC9561",
"d  c #AF9864",
"f  c #A3946D",
"g  c #A99365",
"h  c #B39B65",
"j  c #B89E67",
"k  c #A99B76",
"l  c #B29F77",
"z  c #BBA36C",
"x  c #BCA574",
"c  c #B7A47A",
"v  c #C79C46",
"b  c #C39E58",
"n  c #CDA34B",
"m  c #CEA64A",
"M  c #D3A541",
"N  c #D7AA44",
"B  c #DDAC44",
"V  c #D2A54B",
"C  c #D5A94D",
"Z  c #DCAD4B",
"A  c #DCB34E",
"S  c #DDB047",
"D  c #C8A55A",
"F  c #D3A954",
"G  c #DAAE53",
"H  c #D7AE5A",
"J  c #DCB354",
"K  c #DAB35B",
"L  c #DCB95F",
"P  c #D7B15F",
"I  c #E1AF44",
"U  c #E3B34D",
"Y  c #E2B147",
"T  c #E2B654",
"R  c #E6BA55",
"E  c #E1B75E",
"W  c #E3BA5D",
"Q  c #E9BE5D",
"!  c #C9A762",
"~  c #C5A766",
"^  c #DAB462",
"/  c #DEBB64",
"(  c #DAB56A",
")  c #DDBA6A",
"_  c #D3B268",
"`  c #C3AC7A",
"'  c #CCB37C",
"]  c #CBB072",
"[  c #DABD73",
"{  c #D9BB7B",
"}  c #D5B674",
"|  c #E3BC63",
" . c #E3BD6B",
".. c #E0BE74",
"X. c #DFC05F",
"o. c #DEC17C",
"O. c #E6C264",
"+. c #E9C265",
"@. c #E6C26C",
"#. c #EBC56C",
"$. c #ECC96E",
"%. c #F1CC6E",
"&. c #E6C373",
"*. c #E9C672",
"=. c #EBCA74",
"-. c #E3C27C",
";. c #E9C77B",
":. c #EBCB7B",
">. c #E5CA7B",
",. c #EBD07F",
"<. c #F3D37E",
"1. c #F1CB76",
"2. c #B5AB87",
"3. c #BCB48D",
"4. c #BEBB9F",
"5. c #C9B786",
"6. c #D5BF8E",
"7. c #C4BA97",
"8. c #DBC384",
"9. c #DCC78B",
"0. c #D5C897",
"q. c #D8C596",
"w. c #E2C685",
"e. c #E5CA85",
"r. c #ECCD83",
"t. c #E3CC8B",
"y. c #E8CB89",
"u. c #EDD284",
"i. c #ECD38C",
"p. c #F3D384",
"a. c #F3D68B",
"s. c #F4DA89",
"d. c #FADD8C",
"f. c #FBD781",
"g. c #E5CC91",
"h. c #E6D193",
"j. c #ECD494",
"k. c #EFDA95",
"l. c #E5D399",
"z. c #ECD59C",
"x. c #EED99C",
"c. c #F2DA94",
"v. c #FADE93",
"b. c #F1DA9A",
"n. c #FBDE9A",
"m. c #FAE39C",
"M. c #F8E197",
"N. c #D0C7A2",
"B. c #DCD1A6",
"V. c #DED1B1",
"C. c #D3D1B2",
"Z. c #CECAA9",
"A. c #EDDBA4",
"S. c #EEDDA9",
"D. c #E7D7A7",
"F. c #F2DDA3",
"G. c #F0DDAD",
"H. c #E6DCB5",
"J. c #F1DFB5",
"K. c #F2E1A6",
"L. c #FBE4A3",
"P. c #FDEAA4",
"I. c #F3E5AB",
"U. c #FCEBAA",
"Y. c #FBE7AC",
"T. c #FFF1AB",
"R. c #EBE0B6",
"E. c #EFE2BA",
"W. c #E6E1BA",
"Q. c #F4E4B6",
"!. c #F5E9B6",
"~. c #FAEDB4",
"^. c #F3E3BC",
"/. c #F4EABA",
"(. c #F9EDB9",
"). c #F8E6B4",
"_. c #FDF3BC",
"`. c #F9F0B7",
"'. c #E9E4C8",
"]. c #F3E5C3",
"[. c #F5E9C5",
"{. c #F5E6C8",
"}. c #F7ECCA",
"|. c #FCF5C7",
" X c #EFEFDF",
".X c #FAF6D7",
"XX c #FDFDE6",
"oX c #FFFFEC",
"OX c #F6F5E3",
"+X c #FFFFF3",
"@X c None",
/* pixels */
"@X@X@X@X@X@X@X@X@X@X@X@X[.].^.E.E.^.].{.@X@X@X@X@X@X@X@X@X@X@X@X",
"@X@X@X@X@X@X@X@X@X).^.A.F.j.c.c.b.K.A.G.z.J.{.@X@X@X@X@X@X@X@X@X",
"@X@X@X@X@X@X@X@X}.j.=.%.%.d.d.T.T.U.|.c.A.A.z.R.@X@X@X@X@X@X@X@X",
"@X@X@X@X@X@X[.Q.L A %.<.p.p.w.h.g.l.!.I.oX/.K.A.G.^.@X@X@X@X@X@X",
"@X@X@X@X@X).z.4 S +./ [ o.o.[ [ o.) [ 9.D.W.oX/.h.j.[.@X@X@X@X@X",
"@X@X@X@XI.j.o J J n 8.8.:.<.d.v.m.P.M.i.) o.W./.oXA.*.A.@X@X@X@X",
"@X@X@X/.x.: J * ~ l.=.X.1.o.y.m.A.0.W.'.[.k.L C.}.(.E.:.^.@X@X@X",
"@X@X@XY.> < > ~ x.A A i u D ;.v.c.9.K.0.Z.OX!.X.q.OXXXu.:.@X@X@X",
"@X@X!.| S < b K.1 - 0 e  .;.<.d.v.L.U.D.D.N.'.|.O.B.)..Xj.c.@X@X",
"@XG.i., 5 v S.S + - r J |  .*.p.v.M.P.Y.`.V.3. X/./ '.XXx.*.[.@X",
"@XF.| T 3 9.=.= n r v C K | &.:.p.v.m.L.~.`./.4.XXc.t.R.}.b.a.@X",
"@Xc.A 5 _ j.C C - m 1 m H  .] g 7 z m.m.A.0.B.W.C.W.&.'.+XF.=.@X",
"S.$.E Z [ u.V G r q q q D ] .     8 5.g.k f k 3.7.4.' z.!.S.u./.",
"x.$.Y C w.%.H w w D i i j   X . f f   8 6.D.S.5.B.3.2.e.}.XXu.b.",
"i.*.R F t.O.E D w ! ( { l 8 V.t % $ . & K.Y.K.2.f Z.(.h.S.~.c.p.",
"u.$.R ) g.W |  ._ s s x 2.l c h h s & $ c g a 0.S.`._.e.A..Xj.:.",
"r.1.6 P j.Q  ...j t g ` % % u x x d % & q.q.9.x F.~.~.e.A.|.i.:.",
":. .Q ^ g.+.( d 7 5.g.z.N.O u z z d O 8 z.b.n.9.g I.P.i.x.U.u.:.",
"i.$.I 2 g.<.u t } { # 5.G.7.; w q % a ` ' h x ' ' n.m.j.L._.=.i.",
"y.+.E T w.c.D j h ` # x z.D.q.l c x 8.....[ { r.d.v.c.j.a.c.+.b.",
"@XO.*.I ^ G.|  .....&.;.w.w.g.g.w.} _ P ^  .&.*.p.f.k.j.m.a.R @X",
"@X@.O.T H z.a.U | |  . .i ...._ ! H n - C K | @.$.d.x.:.v.=.@.@X",
"@X-.Q :.U V ].Q Z | E E e | | 0 F F V @ @ C J J +.I.;.f.p.R j.@X",
"@X@XJ @.U T ..^.U Y E E e W ^ D ; F V @ O - < B ~.e.W <.%.O.@X@X",
"@X@X-.J i.R , 8.(.Q 5 K n ^ E v r H v v 1 * N `.e.J O.O.R z.@X@X",
"@X@X@XN O.W R B } /.s.R B Z T J J V M > < >.|.[ : W &.Q @.@X@X@X",
"@X@X@X@X4 #.r.I Y ^ z.I.c.=.| W W L @.k.`.A.- 4 A 3 +.+.@X@X@X@X",
"@X@X@X@X@X5 | ;.O.6 C  .t.b.F.F.K.x.K.t.m 3 : : K O.O.@X@X@X@X@X",
"@X@X@X@X@X@X, W :. .O.5 Y G H | K ^ < N : 4 ^ C Q O.@X@X@X@X@X@X",
"@X@X@X@X@X@X@Xo.N | $. .@.U T R 6 W 4 L / J T $.j.@X@X@X@X@X@X@X",
"@X@X@X@X@X@X@X@X@X .J *.$.$.*.O.*.+.$.+.$.@.y.@X@X@X@X@X@X@X@X@X",
"@X@X@X@X@X@X@X@X@X@X@X@Xn P / | | | ^ H @X@X@X@X@X@X@X@X@X@X@X@X"
};
